<svg width="503" height="283" viewBox="0 0 503 283" fill="none" xmlns="http://www.w3.org/2000/svg">
<path d="M273.769 48.7865C271.55 48.7865 269.742 46.9782 269.742 44.759C269.742 42.5397 271.55 40.7315 273.769 40.7315C275.988 40.7315 277.797 42.5397 277.797 44.759C277.797 46.9782 275.988 48.7865 273.769 48.7865ZM229.179 48.7865C226.96 48.7865 225.151 46.9782 225.151 44.759C225.151 42.5397 226.96 40.7315 229.179 40.7315C231.398 40.7315 233.206 42.5397 233.206 44.759C233.206 46.9782 231.398 48.7865 229.179 48.7865ZM275.207 24.4982L283.262 10.5252C283.715 9.70324 283.468 8.71691 282.646 8.22375C281.865 7.77168 280.838 8.01827 280.345 8.84021L272.166 22.9776C265.92 20.1419 258.892 18.5391 251.412 18.5391C243.933 18.5391 236.905 20.1419 230.658 22.9776L222.562 8.84021C222.11 8.05936 221.083 7.77168 220.261 8.22375C219.48 8.67582 219.192 9.70324 219.644 10.5252L227.699 24.4982C213.85 32.0189 204.397 46.033 203 62.5951H299.907C298.509 46.033 289.057 32.0189 275.207 24.4982Z" fill="#3DDC84"/>
<path fill-rule="evenodd" clip-rule="evenodd" d="M73.7994 96.3496H133.958C136.42 96.3496 138.417 94.3692 138.417 91.9262L138.417 53.1734C138.417 50.7304 136.42 48.75 133.958 48.75H59.6611L59.6612 90.2962L59.5833 90.3187V114.2L73.7994 96.3496Z" fill="#EFF7CF"/>
<path d="M116.108 72.4462C116.108 70.2223 117.872 68.4585 120.096 68.4585C122.32 68.4585 124.083 70.2223 124.083 72.4462C124.083 74.6701 122.32 76.4339 120.096 76.4339C117.872 76.4339 116.108 74.6701 116.108 72.4462Z" fill="#3DDC84"/>
<path d="M94.9607 72.4462C94.9607 70.2223 96.7245 68.4585 98.9484 68.4585C101.172 68.4585 102.936 70.2223 102.936 72.4462C102.936 74.6701 101.172 76.4339 98.9484 76.4339C96.7245 76.4339 94.9607 74.6701 94.9607 72.4462Z" fill="#3DDC84"/>
<path d="M73.8134 72.4462C73.8134 70.2223 75.5772 68.4585 77.8011 68.4585C80.025 68.4585 81.7888 70.2223 81.7888 72.4462C81.7888 74.6701 80.025 76.4339 77.8011 76.4339C75.5772 76.4339 73.8134 74.6701 73.8134 72.4462Z" fill="#3DDC84"/>
<rect x="211" y="228" width="80" height="51.6923" rx="8" fill="#D7EFFE"/>
<path d="M263.369 253.792C263.369 253.283 263.069 252.775 262.419 252.368C262.369 252.317 262.319 252.317 262.269 252.266L258.417 250.03L257.166 249.318L252.014 246.37L242.009 240.625C241.959 240.574 241.909 240.574 241.859 240.523H241.809C241.759 240.523 241.759 240.473 241.709 240.473H241.659C241.609 240.473 241.609 240.422 241.559 240.422H241.509C241.359 240.371 241.209 240.32 241.058 240.32C240.608 240.269 240.208 240.371 239.908 240.676L239.858 240.727L239.808 240.778C239.808 240.778 239.808 240.778 239.758 240.828C239.758 240.828 239.758 240.879 239.708 240.879C239.708 240.93 239.658 240.93 239.658 240.981C239.658 241.032 239.608 241.032 239.608 241.083C239.608 241.133 239.558 241.133 239.558 241.184C239.508 241.235 239.508 241.337 239.458 241.388C239.458 241.438 239.458 241.489 239.408 241.489C239.408 241.54 239.408 241.591 239.358 241.591C239.358 241.642 239.358 241.693 239.358 241.743V241.794C239.358 241.794 239.308 242.099 239.308 242.15V242.303V256.638V262.129L239.358 265.331L239.408 265.84C239.458 266.348 239.608 266.704 239.858 267.009L239.908 267.06L239.958 267.111C239.958 267.111 240.008 267.161 240.058 267.161C240.058 267.161 240.058 267.161 240.108 267.161C240.158 267.161 240.158 267.212 240.208 267.212C240.258 267.212 240.258 267.263 240.308 267.263C240.358 267.263 240.358 267.263 240.408 267.314C240.458 267.314 240.458 267.314 240.508 267.365C240.908 267.416 241.409 267.314 241.959 267.009L251.714 261.315L257.066 258.214L258.167 257.553L259.468 256.791L262.119 255.266C262.469 255.062 262.769 254.808 262.919 254.554C263.069 254.3 263.169 254.046 263.169 253.792C263.369 253.842 263.369 253.792 263.369 253.792Z" fill="#1769E0"/>
<path d="M370.75 218.063C370.75 215.819 372.569 214 374.813 214H424.187C426.431 214 428.25 215.819 428.25 218.063V229.094H370.75V218.063Z" fill="#EA5426"/>
<path fill-rule="evenodd" clip-rule="evenodd" d="M398.584 209.424L398.479 194.358L402.319 194.331L402.424 209.397L398.584 209.424Z" fill="#073042"/>
<path d="M382.25 210.876C382.25 208.632 384.069 206.812 386.313 206.812H412.687C414.931 206.812 416.75 208.632 416.75 210.876V214H382.25V210.876Z" fill="#F86734"/>
<circle cx="400.578" cy="185.609" r="9.60093" fill="#F6DA00"/>
<g clip-path="url(#clip0)">
<path d="M125.283 161.762C118.3 156.837 109.44 154.572 100.366 156.14C82.2056 159.226 70.0463 176.455 73.1323 194.616C76.2687 212.763 93.5111 224.973 111.658 221.836C120.732 220.268 128.318 215.161 133.257 208.227L106.037 188.981L125.283 161.762Z" fill="#4285F4"/>
<path d="M136.853 176.355C134.389 170.38 130.349 165.367 125.233 161.776L106.037 188.981L136.853 176.355Z" fill="#F86734"/>
<path d="M136.853 176.355L106.037 188.981L133.257 208.227C138.182 201.244 140.46 192.434 138.892 183.361C138.446 180.891 137.762 178.539 136.853 176.355Z" fill="#3DDC84"/>
</g>
<path d="M313.261 141L189.22 141.173L177.562 192.03C176.037 195.495 177.802 200 180.611 200L321.389 199.654C324.198 199.654 325.923 195.207 324.478 191.742L313.261 141Z" fill="#1769E0"/>
<path d="M313.261 142L189.22 141.833L177.562 92.6995C176.037 89.3519 177.802 85 180.611 85L321.389 85.3348C324.198 85.3348 325.923 89.6308 324.478 92.9784L313.261 142Z" fill="#4285F4"/>
<rect x="219" y="157" width="39" height="8" fill="#4285F4"/>
<rect x="219" y="175" width="39" height="8" fill="#4285F4"/>
<path d="M195 99H242V134H203.545L195 99Z" fill="#1769E0"/>
<path d="M209 165C211.209 165 213 163.209 213 161C213 158.791 211.209 157 209 157C206.791 157 205 158.791 205 161C205 163.209 206.791 165 209 165Z" fill="#4285F4"/>
<path d="M209 183C211.209 183 213 181.209 213 179C213 176.791 211.209 175 209 175C206.791 175 205 176.791 205 179C205 181.209 206.791 183 209 183Z" fill="#4285F4"/>
<path d="M299 165C301.209 165 303 163.209 303 161C303 158.791 301.209 157 299 157C296.791 157 295 158.791 295 161C295 163.209 296.791 165 299 165Z" fill="#4285F4"/>
<path d="M299 183C301.209 183 303 181.209 303 179C303 176.791 301.209 175 299 175C296.791 175 295 176.791 295 179C295 181.209 296.791 183 299 183Z" fill="#4285F4"/>
<path d="M250.483 114H292.129V121H250.483V114Z" fill="#1769E0"/>
<path d="M250 99H308V106H250V99Z" fill="#1769E0"/>
<path fill-rule="evenodd" clip-rule="evenodd" d="M434.532 72.2411L409.994 97.6554L391.716 78.5464L367.916 105.519L365.417 103.314L391.617 73.6205L410.006 92.8448L432.134 69.9258L434.532 72.2411Z" fill="#F6DA00"/>
<path fill-rule="evenodd" clip-rule="evenodd" d="M440 71.0832C440 74.7651 437.015 77.7498 433.333 77.7498C429.651 77.7498 426.667 74.7651 426.667 71.0832C426.667 67.4013 429.651 64.4165 433.333 64.4165C437.015 64.4165 440 67.4013 440 71.0832ZM398.333 76.0832C398.333 79.7651 395.349 82.7498 391.667 82.7498C387.985 82.7498 385 79.7651 385 76.0832C385 72.4013 387.985 69.4165 391.667 69.4165C395.349 69.4165 398.333 72.4013 398.333 76.0832ZM373.333 104.416C373.333 108.098 370.349 111.083 366.667 111.083C362.985 111.083 360 108.098 360 104.416C360 100.735 362.985 97.7498 366.667 97.7498C370.349 97.7498 373.333 100.735 373.333 104.416ZM410 101.916C413.682 101.916 416.667 98.9317 416.667 95.2498C416.667 91.5679 413.682 88.5831 410 88.5831C406.318 88.5831 403.333 91.5679 403.333 95.2498C403.333 98.9317 406.318 101.916 410 101.916Z" fill="#F6DA00"/>
<defs>
<clipPath id="clip0">
<rect width="80" height="80" fill="white" transform="translate(57 160.706) rotate(-15)"/>
</clipPath>
</defs>
</svg>
